<svg width="219" height="120" viewBox="0 0 219 120" fill="none" xmlns="http://www.w3.org/2000/svg">
<rect width="219" height="120" rx="4" fill="#F1F4F8"/>
<path d="M120.491 46H97.6951C97.2633 46 96.8492 46.2107 96.5438 46.5858C96.2384 46.9609 96.0669 47.4696 96.0669 48V72C96.0669 72.5304 96.2384 73.0391 96.5438 73.4142C96.8492 73.7893 97.2633 74 97.6951 74H120.491C120.923 74 121.337 73.7893 121.642 73.4142C121.947 73.0391 122.119 72.5304 122.119 72V48C122.119 47.4696 121.947 46.9609 121.642 46.5858C121.337 46.2107 120.923 46 120.491 46ZM97.6951 72V48H120.491V72H97.6951Z" fill="#161C2D"/>
<path d="M101.701 56C102.184 56 102.656 55.8241 103.058 55.4944C103.459 55.1648 103.772 54.6962 103.957 54.1481C104.142 53.5999 104.19 52.9967 104.096 52.4147C104.002 51.8328 103.769 51.2982 103.428 50.8787C103.086 50.4591 102.651 50.1734 102.177 50.0576C101.703 49.9419 101.212 50.0013 100.766 50.2284C100.32 50.4554 99.9383 50.8399 99.6699 51.3333C99.4015 51.8266 99.2583 52.4067 99.2583 53C99.2583 53.7957 99.5156 54.5587 99.9737 55.1213C100.432 55.6839 101.053 56 101.701 56ZM101.701 51.4C101.959 51.398 102.211 51.4902 102.427 51.6648C102.642 51.8394 102.81 52.0886 102.91 52.3807C103.01 52.6729 103.037 52.9949 102.987 53.306C102.938 53.617 102.815 53.903 102.633 54.1278C102.451 54.3526 102.219 54.5059 101.966 54.5685C101.713 54.631 101.451 54.5999 101.212 54.4791C100.974 54.3583 100.77 54.1533 100.626 53.8899C100.483 53.6266 100.406 53.3169 100.406 53C100.408 52.5791 100.545 52.1762 100.788 51.8786C101.03 51.581 101.358 51.4126 101.701 51.41V51.4Z" fill="#161C2D"/>
<path d="M112.984 57.3699L108.588 62.7699L105.332 58.7699C105.179 58.5836 104.973 58.4791 104.758 58.4791C104.543 58.4791 104.336 58.5836 104.184 58.7699L99.2583 64.8999V67.7299L104.786 60.9399L107.465 64.1799L104.412 67.9299H106.651L113.53 59.4799L118.862 65.9999V63.1799L114.132 57.3699C113.98 57.1836 113.774 57.0791 113.558 57.0791C113.343 57.0791 113.137 57.1836 112.984 57.3699Z" fill="#161C2D"/>
</svg>
